<svg id="ba378a8d-62d4-4919-a1b5-fb329fbd56c9" data-name="Layer 1" xmlns="http://www.w3.org/2000/svg" viewBox="0 0 1000 400"><defs><style>.f702f96f-ac38-4628-ade7-9fa810845ec4{fill:#545454;}</style></defs><title>Notch Logo 3_SVG</title><rect class="f702f96f-ac38-4628-ade7-9fa810845ec4" x="203.6" y="258.5" width="52.2" height="75.93"/><rect class="f702f96f-ac38-4628-ade7-9fa810845ec4" x="88" y="258.5" width="52.2" height="75.93"/><path class="f702f96f-ac38-4628-ade7-9fa810845ec4" d="M191,151.9c-5.1,0-11.9,1.1-22.7,4.4s-21.6,11.5-28.1,22.6h-.3V155.5H88v75.6h52.4a37.5,37.5,0,0,1,8.1-20.8c5.4-6.5,13.3-9.8,23.7-9.8,19.6,0,30,12,31.2,30.6h52.3v-7.9C255.7,186.5,236.3,151.9,191,151.9Z"/><path class="f702f96f-ac38-4628-ade7-9fa810845ec4" d="M522.7,268.5V200.9h40.2l-91.3-69v23.6H436v37.9a90.6,90.6,0,0,0-33.1-29.9c-14.7-8.3-31.3-12.3-48.9-12.3a103.2,103.2,0,0,0-49.3,12.3A93.2,93.2,0,0,0,269,197.7a92,92,0,0,0-12.2,33.4h54.3A44.2,44.2,0,0,1,322,212a42.6,42.6,0,0,1,31.3-12.9c12.6,0,23,4.3,31.6,12.9a41.5,41.5,0,0,1,11,19.1,54.8,54.8,0,0,1,1.6,13.7,55.3,55.3,0,0,1-1.6,13.7,38.9,38.9,0,0,1-11,19,42.3,42.3,0,0,1-31.3,13c-12.6,0-23-4.3-31.6-13a43.3,43.3,0,0,1-10.9-19H256.6a92.9,92.9,0,0,0,47.4,68,104.1,104.1,0,0,0,49.3,11.9,101,101,0,0,0,49.3-12.3,91.6,91.6,0,0,0,35.6-33.8,89,89,0,0,0,12-33.8,108.8,108.8,0,0,0,1-14.1,98,98,0,0,0-.9-13.3,85.1,85.1,0,0,0-9.8-30.2h30v70.5q0,65.4,64.8,65.5c12.2,0,22.7-1.4,31.3-4.3V290.2a164,164,0,0,1-18.4,1.4C530.9,291.6,522.7,282.9,522.7,268.5Z"/><polygon class="f702f96f-ac38-4628-ade7-9fa810845ec4" points="567 155.5 548.2 155.5 567 169.7 567 155.5"/><polygon class="f702f96f-ac38-4628-ade7-9fa810845ec4" points="522.7 99.4 473.9 99.4 522.7 136.3 522.7 99.4"/><path class="f702f96f-ac38-4628-ade7-9fa810845ec4" d="M624.8,211.7c8.3-8.3,18.3-12.3,30.2-12.3s19.4,2.6,26.6,8,11.6,11.9,13.7,19.4l47.9-14.4a72.5,72.5,0,0,0-33.1-45.7,101.3,101.3,0,0,0-54-15.5,104.8,104.8,0,0,0-49.7,12.3,100.7,100.7,0,0,0-23.3,18.4l40.7,30.8Z"/><path class="f702f96f-ac38-4628-ade7-9fa810845ec4" d="M655.4,290.2c-13,0-23.1-4.4-31-13a40.5,40.5,0,0,1-10.5-18.7,53.4,53.4,0,0,1-1.7-14.1,57.4,57.4,0,0,1,.3-6l-9.6-7.3-35.1-26.5a85,85,0,0,0-8.2,26.5,93.2,93.2,0,0,0-1,14,98.7,98.7,0,0,0,.6,13.4c5.6,46,45.1,80.5,95.8,79.9a104.1,104.1,0,0,0,37.8-6.9c11.9-4.3,22.3-11.1,32-20.5a76.5,76.5,0,0,0,19.5-34.2l-47.9-14.4C691,277.9,676.6,290.2,655.4,290.2Z"/><polygon class="f702f96f-ac38-4628-ade7-9fa810845ec4" points="744.3 276.8 744.3 334.4 796.4 334.4 796.4 258.5 744.3 258.5 744.3 276.8"/><path class="f702f96f-ac38-4628-ade7-9fa810845ec4" d="M896.1,173.9c-10.4-13.7-28-22-50-22-5.8,0-12.6,1.1-22.3,4.4s-19.8,10.4-27,20.1h-.4V61.6H744.3V231.1h52.3a36.8,36.8,0,0,1,8.1-20.8c5.4-6.9,13.3-10.1,24.1-10.1,19.2,0,29.6,12.6,30.8,30.9H912v-7.9C912,204.1,906.6,187.2,896.1,173.9Z"/><rect class="f702f96f-ac38-4628-ade7-9fa810845ec4" x="859.8" y="258.5" width="52.2" height="75.93"/></svg>